<!-- icon666.com - MILLIONS vector ICONS FREE --><svg id="Layer_1" enable-background="new 0 0 512 512" viewBox="0 0 512 512" xmlns="http://www.w3.org/2000/svg"><path clip-rule="evenodd" d="m385.86 169.12c0 12.135-20.69 18.554-42.588 19.263-.698.023-1.203-.65-.986-1.314.953-2.919 1.479-6.073 1.479-9.476 0-19.476-6.35-37.47-17.087-52.03-.422-.572-.137-1.382.55-1.564 3.817-1.01 7.825-1.55 11.96-1.55 25.777 0 46.672 20.896 46.672 46.671zm-56.094 8.473c0-40.738-33.025-73.763-73.763-73.763-40.739 0-73.769 33.026-73.769 73.763 0 40.739 147.532 40.739 147.532 0zm-107.857-127.505c0 18.83 15.264 34.094 34.094 34.094s34.093-15.264 34.093-34.094c0-18.825-15.263-34.088-34.093-34.088s-34.094 15.264-34.094 34.088zm258.326 245.676c-47.263 0-70.976 57.258-37.559 90.676 6.156 6.156 6.156 16.141 0 22.297l-33.941 33.941c-6.156 6.156-16.141 6.156-22.297 0-33.418-33.418-90.676-9.704-90.676 37.559 0 8.71-7.06 15.765-15.765 15.765h-47.998c-8.705 0-15.765-7.055-15.765-15.765 0-47.321-57.215-71.018-90.675-37.559-6.156 6.156-16.14 6.156-22.296 0l-33.941-33.941c-6.156-6.156-6.156-16.14 0-22.297 33.418-33.418 9.704-90.676-37.558-90.676-8.71 0-15.765-7.06-15.765-15.765v-21.997c.001-1.102.901-2.002 2.004-2.002h118.729c1.092 0 1.982.878 2 1.97 1.052 63.866 53.151 115.314 117.268 115.314 64.116 0 116.216-51.449 117.268-115.314.018-1.09.91-1.97 2-1.97h118.729c1.103 0 2.003.9 2.003 2.003v21.997c0 8.704-7.055 15.764-15.765 15.764zm-12.4-87.532-16.005.267.077 33.501h-13.946l-.093-40.25c-.06-3.851 3.012-7.022 6.863-7.082l22.87-.381c2.47-4.893 7.542-8.249 13.397-8.249 8.284 0 15 6.716 15 15s-6.716 15-15 15c-5.676 0-10.616-3.154-13.163-7.806zm-436.835 7.806c5.677 0 10.618-3.154 13.165-7.806l16.005.267-.078 33.501h13.946l.093-40.25c.06-3.851-3.012-7.022-6.863-7.082l-22.87-.381c-2.471-4.893-7.542-8.249-13.398-8.249-8.284 0-15 6.716-15 15 0 8.285 6.716 15 15 15zm420.82-45.691c8.284 0 15-6.716 15-15s-6.716-15-15-15c-5.756 0-10.754 3.243-13.268 8h-28.676c-4.124 0-6.982 3.528-6.971 7.639l.25 86.014h13.945l-.231-79.653h21.682c2.515 4.757 7.513 8 13.269 8zm-391.64 0c-8.284 0-15-6.716-15-15s6.716-15 15-15c5.756 0 10.754 3.243 13.269 8h28.675c4.124 0 6.983 3.528 6.971 7.639l-.25 86.014h-13.946l.231-79.653h-21.682c-2.515 4.757-7.513 8-13.268 8zm280.071 87.704c.027-1.132-.871-2.051-2.003-2.051h-164.497c-1.132 0-2.03.919-2.003 2.051 1.089 45.597 38.393 82.225 84.252 82.225s83.163-36.628 84.251-82.225zm-171.523-69.668c-21.898-.709-42.588-7.128-42.588-19.263 0-25.775 20.899-46.671 46.674-46.671 4.134 0 8.142.54 11.959 1.55.687.182.972.992.55 1.564-10.739 14.56-17.089 32.553-17.089 52.03 0 3.403.526 6.557 1.479 9.476.217.664-.287 1.337-.985 1.314zm-17.486-99.936c0-11.911 9.658-21.568 21.571-21.568 11.914 0 21.571 9.657 21.571 21.568 0 11.914-9.657 21.571-21.571 21.571-11.913 0-21.571-9.657-21.571-21.571zm166.376 0c0-11.911 9.658-21.568 21.571-21.568 11.914 0 21.571 9.657 21.571 21.568 0 11.914-9.657 21.571-21.571 21.571-11.913 0-21.571-9.657-21.571-21.571z" fill-rule="evenodd"></path></svg>